Motion_pl11
version=1
nRows=6
nColumns=43
inDegrees=yes
endheader
time	pelvis_tilt	pelvis_list	pelvis_rotation	pelvis_tx	pelvis_ty	pelvis_tz	hip_flexion_r	hip_adduction_r	hip_rotation_r	knee_angle_r	ankle_angle_r	subtalar_angle_r	mtp_angle_r	hip_flexion_l	hip_adduction_l	hip_rotation_l	knee_angle_l	ankle_angle_l	subtalar_angle_l	mtp_angle_l	lumbar_extension	lumbar_bending	lumbar_rotation	neck_flexion	neck_lateral_bending	neck_rotation	arm_flex_r	arm_add_r	arm_rot_r	elbow_flex_r	pro_sup_r	wrist_flex_r	wrist_dev_r	hand_finger_flex_r	arm_flex_l	arm_add_l	arm_rot_l	elbow_flex_l	pro_sup_l	wrist_flex_l	wrist_dev_l	hand_finger_flex_l
      1.91000000	      2.48975001	     -5.26154300	     90.37293695	     -0.02031955	      1.56342090	      0.91816369	     38.80553355	     -6.05705604	    -16.04200443	    -50.70077102	    -21.24725054	      3.85562673	     29.22935689	     31.60261270	     -8.05699385	    -11.21717944	    -49.06958301	    -21.19110911	      0.48766995	      6.08770307	    -28.33425816	      2.80580787	     -0.81017385	    -16.47184800	      7.93291890	      1.72216235	      9.62780746	    -44.38191996	     10.41410560	     58.88734346	    128.98545854	      8.60832880	     -4.40806565	    -33.54471703	    -21.07893411	    -52.72944885	     -8.58549356	     68.37599058	    136.83238368	     -0.83483375	      0.31109209	    -22.07531999
      1.91250000	      2.50204692	     -5.22339632	     90.44111766	     -0.02056209	      1.55845639	      0.91306995	     38.43530730	     -6.02961533	    -16.20045299	    -49.75336272	    -21.26852869	      3.80820386	     29.12795625	     31.36605809	     -7.97008388	    -11.49135698	    -47.99403752	    -21.40438556	      0.52515615	      6.06451133	    -28.16127831	      2.89931767	     -0.71947519	    -17.25826083	      7.80507441	      1.58399211	      7.65372936	    -44.94100504	     10.04865860	     58.70100782	    129.02584847	      8.49412622	     -4.43093745	    -33.62877919	    -23.04682534	    -52.65321838	     -8.97007667	     68.17560896	    136.96548830	     -0.98740094	      0.25473032	    -22.16739853
      1.91500000	      2.46063060	     -5.12524248	     90.51718987	     -0.02052743	      1.55355256	      0.90807815	     38.00922486	     -5.96247139	    -16.18195696	    -48.79739148	    -21.07801274	      3.57873246	     28.87760670	     31.01453467	     -7.86058357	    -11.85679255	    -46.83272525	    -21.50632337	      0.56829264	      6.04844697	    -28.21998170	      2.85452468	     -0.69947583	    -17.16036010	      7.95596533	      1.54779956	      5.52024560	    -45.07260358	      8.91635719	     58.50044743	    129.29893754	      8.25078463	     -4.47375205	    -33.76653923	    -25.47011727	    -52.42516481	    -10.19037454	     68.26985483	    137.42904409	     -1.29796039	     -0.13769497	    -22.35822934
      1.91750000	      2.43825347	     -5.04773611	     90.58270264	     -0.02062450	      1.54838095	      0.90302981	     37.64769069	     -5.98411491	    -16.37455268	    -47.95125225	    -21.11574187	      3.50671367	     28.73654551	     30.74749086	     -7.79203074	    -12.25229724	    -45.80206850	    -21.74075271	      0.60859671	      6.00385726	    -28.11258129	      2.87686746	     -0.59366350	    -17.75249707	      7.89012059	      1.47020423	      3.44011290	    -45.64571422	      8.58577972	     58.41432982	    129.46563565	      8.24593998	     -4.52373487	    -33.81201978	    -27.52005395	    -52.35208692	    -10.75928571	     68.18849656	    137.65605262	     -1.42066337	     -0.31440755	    -22.44480660
      1.92000000	      2.24092824	     -4.80605672	     90.48502121	     -0.02053946	      1.54344700	      0.89813502	     37.16288978	     -6.01072985	    -16.22185069	    -47.10364457	    -20.94484255	      3.27000812	     28.16432304	     30.18424782	     -7.60280251	    -12.84142658	    -44.62441888	    -21.85504893	      0.66659947	      5.91066290	    -28.41280684	      2.59955446	     -0.57992440	    -17.23301526	      8.21690135	      1.56256719	      1.37013808	    -45.75624430	      7.37160425	     58.41112001	    130.54306339	      8.48789135	     -4.63418131	    -33.76345496	    -30.25639522	    -51.94623430	    -12.62706048	     68.54620692	    138.80179236	     -1.29624251	     -1.08927198	    -22.54713635
      1.92250000	      2.27799824	     -4.79045495	     90.56642758	     -0.02066662	      1.53819626	      0.89298706	     36.81933811	     -5.95572922	    -16.38827645	    -46.18251119	    -20.96823425	      3.23909618	     28.02448938	     29.94739901	     -7.56999701	    -13.20254858	    -43.54011190	    -22.04434517	      0.64413660	      5.85431756	    -28.19440370	      2.71214017	     -0.52160019	    -18.04552333	      7.98259980	      1.47481599	     -0.61170005	    -46.07841885	      6.95087508	     58.11326004	    130.66414758	      8.40499433	     -4.55949132	    -33.84713916	    -32.22618650	    -51.68021040	    -13.17583101	     68.32835421	    138.95543731	     -1.45066899	     -1.14624089	    -22.66405397
